g Wooden_box_v1_LD2square
v -0.4046031 0.4061914 0.4053973
v -0.4046031 0.4061914 -0.4053972
v 0.4053972 0.4061914 -0.4053972
v 0.4053972 0.4061914 0.4053973
v -0.4053973 -0.4061913 -0.4053972
v -0.4046031 0.4061914 -0.4053972
v -0.4046031 0.2981913 -0.3394854
v -0.4046031 -0.3212207 -0.3394854
v -0.4053973 -0.4061913 0.4053973
v -0.4046031 -0.3212207 0.3402796
v -0.4046031 0.4061914 0.4053973
v -0.4046031 0.2981913 0.3402796
v -0.3744267 0.2981913 -0.3394854
v -0.3744267 0.2981913 0.3402796
v -0.3744267 -0.3212207 0.3402796
v -0.3744267 -0.3212207 -0.3394854
v -0.3728384 0.2981913 -0.2823089
v -0.3728384 -0.3108972 0.3402796
v -0.396662 -0.316456 0.3402796
v -0.396662 0.2981913 -0.2823089
v -0.396662 -0.3212207 0.2902502
v -0.3728384 -0.3212207 0.2902502
v -0.3728384 0.2918384 -0.3394854
v -0.396662 0.2950149 -0.3394854
v -0.396662 0.2950149 -0.3394854
v -0.396662 0.2981913 -0.2823089
v -0.396662 -0.316456 0.3402796
v -0.396662 -0.3212207 0.2902502
v -0.3744267 0.2981913 -0.3394854
v -0.3744267 -0.3212207 -0.3394854
v -0.4046031 -0.3212207 -0.3394854
v -0.4046031 0.2981913 -0.3394854
v -0.4046031 -0.3212207 0.3402796
v -0.3744267 -0.3212207 0.3402796
v -0.3744267 0.2981913 0.3402796
v -0.4046031 0.2981913 0.3402796
v -0.4046031 -0.3212207 0.3402796
v -0.4046031 -0.3212207 -0.3394854
v -0.3744267 -0.3212207 -0.3394854
v -0.3744267 -0.3212207 0.3402796
v -0.4046031 0.2981913 -0.3394854
v -0.4046031 0.2981913 0.3402796
v -0.3744267 0.2981913 0.3402796
v -0.3744267 0.2981913 -0.3394854
v 0.4046031 -0.4061913 0.4053973
v 0.4053972 0.4061914 0.4053973
v 0.4053972 0.2981913 0.3394855
v 0.4053972 -0.3212207 0.3394855
v 0.4046031 -0.4061913 -0.4053972
v 0.4053972 -0.3212207 -0.3402795
v 0.4053972 0.4061914 -0.4053972
v 0.4053972 0.2981913 -0.3402795
v 0.3744266 0.2981913 0.3394855
v 0.3744266 0.2981913 -0.3402795
v 0.3744266 -0.3212207 -0.3402795
v 0.3744266 -0.3212207 0.3394855
v 0.3728384 0.2981913 0.282309
v 0.3728384 -0.3108972 -0.3402795
v 0.3966619 -0.316456 -0.3402795
v 0.3966619 0.2981913 0.282309
v 0.3966619 -0.3212207 -0.2902501
v 0.3728384 -0.3212207 -0.2902501
v 0.3728384 0.2918384 0.3394855
v 0.3966619 0.2950149 0.3394855
v 0.3966619 0.2950149 0.3394855
v 0.3966619 0.2981913 0.282309
v 0.3966619 -0.316456 -0.3402795
v 0.3966619 -0.3212207 -0.2902501
v 0.3744266 0.2981913 0.3394855
v 0.3744266 -0.3212207 0.3394855
v 0.4053972 -0.3212207 0.3394855
v 0.4053972 0.2981913 0.3394855
v 0.4053972 -0.3212207 -0.3402795
v 0.3744266 -0.3212207 -0.3402795
v 0.3744266 0.2981913 -0.3402795
v 0.4053972 0.2981913 -0.3402795
v 0.4053972 -0.3212207 -0.3402795
v 0.4053972 -0.3212207 0.3394855
v 0.3744266 -0.3212207 0.3394855
v 0.3744266 -0.3212207 -0.3402795
v 0.4053972 0.2981913 0.3394855
v 0.4053972 0.2981913 -0.3402795
v 0.3744266 0.2981913 -0.3402795
v 0.3744266 0.2981913 0.3394855
v -0.3823678 -0.3712502 0.3783972
v 0.3799855 -0.3712502 0.3783972
v 0.3799855 -0.3712502 -0.3807796
v -0.3823678 -0.3712502 -0.3807796
v -0.3180443 -0.3688678 0.3783972
v 0.3799855 -0.3688678 -0.3672796
v 0.3799855 -0.3958678 -0.3672796
v -0.3180443 -0.3958678 0.3783972
v 0.3243972 -0.3958678 -0.3807796
v 0.3243972 -0.3688678 -0.3807796
v -0.3823678 -0.3688678 0.3704561
v -0.3823678 -0.3958678 0.3704561
v 0.3799855 -0.3958678 -0.3672796
v 0.3799855 -0.3958678 -0.3807796
v 0.3243972 -0.3958678 -0.3807796
v -0.3823678 -0.3958678 0.3704561
v -0.3180443 -0.3958678 0.3783972
v -0.3823678 -0.3958678 0.3783972
v -0.3823678 -0.3712502 0.3783972
v -0.3823678 -0.3712502 -0.3807796
v -0.3823678 -0.4061913 -0.3807796
v -0.3823678 -0.4061913 0.3783972
v 0.3799855 -0.4061913 -0.3807796
v 0.3799855 -0.3712502 -0.3807796
v 0.3799855 -0.3712502 0.3783972
v 0.3799855 -0.4061913 0.3783972
v 0.3799855 -0.4061913 -0.3807796
v -0.3823678 -0.4061913 -0.3807796
v -0.3823678 -0.3712502 -0.3807796
v 0.3799855 -0.3712502 -0.3807796
v -0.3823678 -0.4061913 0.3783972
v 0.3799855 -0.4061913 0.3783972
v 0.3799855 -0.3712502 0.3783972
v -0.3823678 -0.3712502 0.3783972
v 0.4046031 -0.4061913 -0.4053972
v -0.4053973 -0.4061913 -0.4053972
v -0.3823678 -0.4061913 -0.3807796
v 0.3799855 -0.4061913 -0.3807796
v 0.3799855 -0.4061913 0.3783972
v 0.4046031 -0.4061913 0.4053973
v -0.4053973 -0.4061913 0.4053973
v -0.3823678 -0.4061913 0.3783972
v 0.4053972 0.4061914 0.4053973
v 0.4046031 -0.4061913 0.4053973
v 0.3394854 -0.3212207 0.4053973
v 0.3394854 0.295809 0.4053973
v -0.4046031 0.4061914 0.4053973
v -0.3402796 0.295809 0.4053973
v -0.4053973 -0.4061913 0.4053973
v -0.3402796 -0.3212207 0.4053973
v 0.3394854 -0.3212207 0.3744267
v -0.3402796 -0.3212207 0.3744267
v -0.3402796 0.295809 0.3744267
v 0.3394854 0.295809 0.3744267
v 0.2823089 -0.3212207 0.3728384
v -0.3402796 0.2854854 0.3728384
v -0.3402796 0.2910443 0.396662
v 0.2823089 -0.3212207 0.396662
v -0.2902502 0.295809 0.396662
v -0.2902502 0.295809 0.3728384
v 0.3394854 -0.3148678 0.3728384
v 0.3394854 -0.3180442 0.396662
v 0.3394854 -0.3180442 0.396662
v 0.2823089 -0.3212207 0.396662
v -0.3402796 0.2910443 0.396662
v -0.2902502 0.295809 0.396662
v 0.3394854 -0.3212207 0.3744267
v 0.3394854 0.295809 0.3744267
v 0.3394854 0.295809 0.4053973
v 0.3394854 -0.3212207 0.4053973
v -0.3402796 0.295809 0.4053973
v -0.3402796 0.295809 0.3744267
v -0.3402796 -0.3212207 0.3744267
v -0.3402796 -0.3212207 0.4053973
v -0.3402796 0.295809 0.4053973
v 0.3394854 0.295809 0.4053973
v 0.3394854 0.295809 0.3744267
v -0.3402796 0.295809 0.3744267
v 0.3394854 -0.3212207 0.4053973
v -0.3402796 -0.3212207 0.4053973
v -0.3402796 -0.3212207 0.3744267
v 0.3394854 -0.3212207 0.3744267
v -0.4046031 0.4061914 -0.4053972
v -0.4053973 -0.4061913 -0.4053972
v -0.3394855 -0.3212207 -0.4053972
v -0.3394855 0.295809 -0.4053972
v 0.4053972 0.4061914 -0.4053972
v 0.3410737 0.295809 -0.4053972
v 0.4046031 -0.4061913 -0.4053972
v 0.3410737 -0.3212207 -0.4053972
v -0.3394855 -0.3212207 -0.3744266
v 0.3410737 -0.3212207 -0.3744266
v 0.3410737 0.295809 -0.3744266
v -0.3394855 0.295809 -0.3744266
v -0.282309 -0.3212207 -0.3728384
v 0.3410737 0.2854854 -0.3728384
v 0.3410737 0.2910443 -0.3966619
v -0.282309 -0.3212207 -0.3966619
v 0.2902501 0.295809 -0.3966619
v 0.2902501 0.295809 -0.3728384
v -0.3394855 -0.3148678 -0.3728384
v -0.3394855 -0.3180442 -0.3966619
v -0.3394855 -0.3180442 -0.3966619
v -0.282309 -0.3212207 -0.3966619
v 0.3410737 0.2910443 -0.3966619
v 0.2902501 0.295809 -0.3966619
v -0.3394855 -0.3212207 -0.3744266
v -0.3394855 0.295809 -0.3744266
v -0.3394855 0.295809 -0.4053972
v -0.3394855 -0.3212207 -0.4053972
v 0.3410737 0.295809 -0.4053972
v 0.3410737 0.295809 -0.3744266
v 0.3410737 -0.3212207 -0.3744266
v 0.3410737 -0.3212207 -0.4053972
v 0.3410737 0.295809 -0.4053972
v -0.3394855 0.295809 -0.4053972
v -0.3394855 0.295809 -0.3744266
v 0.3410737 0.295809 -0.3744266
v -0.3394855 -0.3212207 -0.4053972
v 0.3410737 -0.3212207 -0.4053972
v 0.3410737 -0.3212207 -0.3744266
v -0.3394855 -0.3212207 -0.3744266
vt 0.2063591 0.6657714
vt 0.01947955 0.6657714
vt 0.01947955 0.8370777
vt 0.2063591 0.8370777
vt 0.2452924 0.8409711
vt 0.2452924 0.9928107
vt 0.2569723 0.9772374
vt 0.2569723 0.8565444
vt 0.3932387 0.8409711
vt 0.3815587 0.8565444
vt 0.3932387 0.9928107
vt 0.3815587 0.9772374
vt 0.2569723 0.9772374
vt 0.3815587 0.9772374
vt 0.3815587 0.8565444
vt 0.2569723 0.8565444
vt 0.3893454 0.9772374
vt 0.3893454 0.8565444
vt 0.3854521 0.8565444
vt 0.3854521 0.9772374
vt 0.2491857 0.9733441
vt 0.2569723 0.9733441
vt 0.2569723 0.8565444
vt 0.2491857 0.8565444
vt 0.2569723 0.9772374
vt 0.2686523 0.9772374
vt 0.3815587 0.8604377
vt 0.3737721 0.8565444
vt 0.3893454 0.9772374
vt 0.3893454 0.8565444
vt 0.3815587 0.8565444
vt 0.3815587 0.9772374
vt 0.2491857 0.9772374
vt 0.2569723 0.9772374
vt 0.2569723 0.8565444
vt 0.2491857 0.8565444
vt 0.3893454 0.8487577
vt 0.2491857 0.8487577
vt 0.2491857 0.8565444
vt 0.3893454 0.8565444
vt 0.3893454 0.8409711
vt 0.2491857 0.8409711
vt 0.2491857 0.8487577
vt 0.3893454 0.8487577
vt 0.2452924 0.8409711
vt 0.2452924 0.9928107
vt 0.2569723 0.9772374
vt 0.2569723 0.8565444
vt 0.3932387 0.8409711
vt 0.3815587 0.8565444
vt 0.3932387 0.9928107
vt 0.3815587 0.9772374
vt 0.2569723 0.9772374
vt 0.3815587 0.9772374
vt 0.3815587 0.8565444
vt 0.2569723 0.8565444
vt 0.3893454 0.9772374
vt 0.3893454 0.8565444
vt 0.3854521 0.8565444
vt 0.3854521 0.9772374
vt 0.2491857 0.9733441
vt 0.2569723 0.9733441
vt 0.2569723 0.8565444
vt 0.2491857 0.8565444
vt 0.2569723 0.9772374
vt 0.2686523 0.9772374
vt 0.3815587 0.8604377
vt 0.3737721 0.8565444
vt 0.3893454 0.9772374
vt 0.3893454 0.8565444
vt 0.3815587 0.8565444
vt 0.3815587 0.9772374
vt 0.2491857 0.9772374
vt 0.2569723 0.9772374
vt 0.2569723 0.8565444
vt 0.2491857 0.8565444
vt 0.3893454 0.8487577
vt 0.2491857 0.8487577
vt 0.2491857 0.8565444
vt 0.3893454 0.8565444
vt 0.3893454 0.8409711
vt 0.2491857 0.8409711
vt 0.2491857 0.8487577
vt 0.3893454 0.8487577
vt 0.2569723 0.9772374
vt 0.3815587 0.9772374
vt 0.3815587 0.8565444
vt 0.2569723 0.8565444
vt 0.3893454 0.9772374
vt 0.3893454 0.8565444
vt 0.3854521 0.8565444
vt 0.3854521 0.9772374
vt 0.2491857 0.9733441
vt 0.2569723 0.9733441
vt 0.2569723 0.8565444
vt 0.2491857 0.8565444
vt 0.3815587 0.8604377
vt 0.3815587 0.8565444
vt 0.3737721 0.8565444
vt 0.2569723 0.9733441
vt 0.2686523 0.9772374
vt 0.2569723 0.9772374
vt 0.3893454 0.9772374
vt 0.3893454 0.8565444
vt 0.3815587 0.8565444
vt 0.3815587 0.9772374
vt 0.2491857 0.9772374
vt 0.2569723 0.9772374
vt 0.2569723 0.8565444
vt 0.2491857 0.8565444
vt 0.3893454 0.8487577
vt 0.2491857 0.8487577
vt 0.2491857 0.8565444
vt 0.3893454 0.8565444
vt 0.3893454 0.8409711
vt 0.2491857 0.8409711
vt 0.2491857 0.8487577
vt 0.3893454 0.8487577
vt 0.3854521 0.8565444
vt 0.253079 0.8565444
vt 0.2569723 0.8565444
vt 0.3815587 0.8565444
vt 0.3815587 0.9772374
vt 0.3854521 0.9811308
vt 0.253079 0.9811308
vt 0.2569723 0.9772374
vt 0.2452924 0.8409711
vt 0.2452924 0.9928107
vt 0.2569723 0.9772374
vt 0.2569723 0.8565444
vt 0.3932387 0.8409711
vt 0.3815587 0.8565444
vt 0.3932387 0.9928107
vt 0.3815587 0.9772374
vt 0.2569723 0.9772374
vt 0.3815587 0.9772374
vt 0.3815587 0.8565444
vt 0.2569723 0.8565444
vt 0.3893454 0.9772374
vt 0.3893454 0.8565444
vt 0.3854521 0.8565444
vt 0.3854521 0.9772374
vt 0.2491857 0.9733441
vt 0.2569723 0.9733441
vt 0.2569723 0.8565444
vt 0.2491857 0.8565444
vt 0.2569723 0.9772374
vt 0.2686523 0.9772374
vt 0.3815587 0.8604377
vt 0.3737721 0.8565444
vt 0.3893454 0.9772374
vt 0.3893454 0.8565444
vt 0.3815587 0.8565444
vt 0.3815587 0.9772374
vt 0.2491857 0.9772374
vt 0.2569723 0.9772374
vt 0.2569723 0.8565444
vt 0.2491857 0.8565444
vt 0.3893454 0.8487577
vt 0.2491857 0.8487577
vt 0.2491857 0.8565444
vt 0.3893454 0.8565444
vt 0.3893454 0.8409711
vt 0.2491857 0.8409711
vt 0.2491857 0.8487577
vt 0.3893454 0.8487577
vt 0.2452924 0.8409711
vt 0.2452924 0.9928107
vt 0.2569723 0.9772374
vt 0.2569723 0.8565444
vt 0.3932387 0.8409711
vt 0.3815587 0.8565444
vt 0.3932387 0.9928107
vt 0.3815587 0.9772374
vt 0.2569723 0.9772374
vt 0.3815587 0.9772374
vt 0.3815587 0.8565444
vt 0.2569723 0.8565444
vt 0.3893454 0.9772374
vt 0.3893454 0.8565444
vt 0.3854521 0.8565444
vt 0.3854521 0.9772374
vt 0.2491857 0.9733441
vt 0.2569723 0.9733441
vt 0.2569723 0.8565444
vt 0.2491857 0.8565444
vt 0.2569723 0.9772374
vt 0.2686523 0.9772374
vt 0.3815587 0.8604377
vt 0.3737721 0.8565444
vt 0.3893454 0.9772374
vt 0.3893454 0.8565444
vt 0.3815587 0.8565444
vt 0.3815587 0.9772374
vt 0.2491857 0.9772374
vt 0.2569723 0.9772374
vt 0.2569723 0.8565444
vt 0.2491857 0.8565444
vt 0.3893454 0.8487577
vt 0.2491857 0.8487577
vt 0.2491857 0.8565444
vt 0.3893454 0.8565444
vt 0.3893454 0.8409711
vt 0.2491857 0.8409711
vt 0.2491857 0.8487577
vt 0.3893454 0.8487577
vn -0.01587105 0.999874 -0.000345267
vn -0.01587105 0.999874 -0.000345267
vn -0.01587105 0.999874 -0.000345267
vn -0.01587105 0.999874 -0.000345267
vn -0.999874 0.01587105 -0.0003439156
vn -0.999874 0.01587105 -0.0003439156
vn -0.999874 0.01587105 -0.0003439156
vn -0.999874 0.01587105 -0.0003439156
vn -0.999874 0.01587105 -0.0003439156
vn -0.999874 0.01587105 -0.0003439156
vn -0.999874 0.01587105 -0.0003439156
vn -0.999874 0.01587105 -0.0003439156
vn -0.999874 0.01587105 -0.0003439156
vn -0.999874 0.01587105 -0.0003439156
vn -0.999874 0.01587105 -0.0003439156
vn -0.999874 0.01587105 -0.0003439156
vn -0.01587105 0.7141957 0.6997661
vn -0.1745812 0.7141957 0.6778244
vn -0.1428392 0.7141957 0.6852164
vn -0.01587105 0.7141957 0.6997661
vn -0.01587105 -0.7141957 -0.6997661
vn -0.01587105 -0.7141957 -0.6997661
vn -0.1110971 -0.7141957 -0.691073
vn -0.1110971 -0.7141957 -0.691073
vn -0.999874 0.01587105 -0.0003439156
vn -0.999874 0.01587105 -0.0003439156
vn -0.999874 0.01587105 -0.0003439156
vn -0.999874 0.01587105 -0.0003439156
vn -0.01587105 0.01587105 0.9997481
vn -0.01587105 0.01587105 0.9997481
vn -0.01587105 0.01587105 0.9997481
vn -0.01587105 0.01587105 0.9997481
vn -0.01587105 0.01587105 -0.9997481
vn -0.01587105 0.01587105 -0.9997481
vn -0.01587105 0.01587105 -0.9997481
vn -0.01587105 0.01587105 -0.9997481
vn -0.01587105 0.999874 -0.000345267
vn -0.01587105 0.999874 -0.000345267
vn -0.01587105 0.999874 -0.000345267
vn -0.01587105 0.999874 -0.000345267
vn -0.01587105 -0.999874 -0.000345267
vn -0.01587105 -0.999874 -0.000345267
vn -0.01587105 -0.999874 -0.000345267
vn -0.01587105 -0.999874 -0.000345267
vn 0.999874 -0.01587099 -0.000346655
vn 0.999874 0.01587105 -0.0003439156
vn 0.999874 -0.01587099 -0.000346655
vn 0.999874 -0.01587099 -0.000346655
vn 0.999874 -0.01587099 -0.000346655
vn 0.999874 -0.01587099 -0.000346655
vn 0.999874 0.01587105 -0.0003439156
vn 0.999874 0.01587105 -0.0003439156
vn 0.999874 0.01587105 -0.0003439156
vn 0.999874 0.01587105 -0.0003439156
vn 0.999874 0.01587105 -0.0003439156
vn 0.999874 0.01587105 -0.0003439156
vn 0.01587099 0.7141957 -0.6997661
vn 0.1745812 0.7141957 -0.6778244
vn 0.1428391 0.7141957 -0.6852164
vn -0.01587105 0.7141957 -0.6997661
vn 0.01587099 -0.7141957 0.6997661
vn -0.01587105 -0.7141957 0.6997661
vn 0.1110971 -0.7141957 0.691073
vn 0.1110971 -0.7141957 0.691073
vn 0.999874 0.01587105 -0.0003439156
vn 0.999874 0.01587105 -0.0003439156
vn 0.999874 0.01587105 -0.0003439156
vn 0.999874 0.01587105 -0.0003439156
vn -0.01587105 0.01587105 -0.9997481
vn -0.01587105 0.01587105 -0.9997481
vn -0.01587105 0.01587105 -0.9997481
vn -0.01587105 0.01587105 -0.9997481
vn -0.01587105 0.01587105 0.9997481
vn -0.01587105 0.01587105 0.9997481
vn -0.01587105 0.01587105 0.9997481
vn -0.01587105 0.01587105 0.9997481
vn -0.01587105 0.999874 -0.000345267
vn -0.01587105 0.999874 -0.000345267
vn -0.01587105 0.999874 -0.000345267
vn -0.01587105 0.999874 -0.000345267
vn -0.01587105 -0.999874 -0.000345267
vn -0.01587105 -0.999874 -0.000345267
vn -0.01587105 -0.999874 -0.000345267
vn -0.01587105 -0.999874 -0.000345267
vn -0.01587105 -0.999874 -0.000345267
vn -0.01587105 -0.999874 -0.000345267
vn -0.01587105 -0.999874 -0.000345267
vn -0.01587105 -0.999874 -0.000345267
vn 0.7141957 0.01587105 0.6997661
vn 0.7141957 0.01587105 0.6997661
vn 0.7141957 0.01587105 0.6997661
vn 0.7141957 0.01587105 0.6997661
vn -0.7141957 0.01587105 -0.6997661
vn -0.7141957 0.01587105 -0.6997661
vn -0.7141957 0.01587105 -0.6997661
vn -0.7141957 0.01587105 -0.6997661
vn -0.01587105 -0.999874 -0.000345267
vn -0.01587105 -0.999874 -0.000345267
vn -0.01587105 -0.999874 -0.000345267
vn -0.01587105 -0.999874 -0.000345267
vn -0.01587105 -0.999874 -0.000345267
vn -0.01587105 -0.999874 -0.000345267
vn 0.999874 0.01587105 -0.0003439156
vn 0.999874 0.01587105 -0.0003439156
vn 0.999874 0.01587105 -0.0003439156
vn 0.999874 0.01587105 -0.0003439156
vn -0.999874 0.01587105 -0.0003439156
vn -0.999874 0.01587105 -0.0003439156
vn -0.999874 0.01587105 -0.0003439156
vn -0.999874 0.01587105 -0.0003439156
vn -0.01587105 0.01587105 0.9997481
vn -0.01587105 0.01587105 0.9997481
vn -0.01587105 0.01587105 0.9997481
vn -0.01587105 0.01587105 0.9997481
vn -0.01587105 0.01587105 -0.9997481
vn -0.01587105 0.01587105 -0.9997481
vn -0.01587105 0.01587105 -0.9997481
vn -0.01587105 0.01587105 -0.9997481
vn -0.01587105 -0.999874 -0.000345267
vn -0.01587105 -0.999874 -0.000345267
vn -0.01587105 -0.999874 -0.000345267
vn -0.01587105 -0.999874 -0.000345267
vn -0.01587105 -0.999874 -0.000345267
vn -0.01587105 -0.999874 -0.000345267
vn -0.01587105 -0.999874 -0.000345267
vn -0.01587105 -0.999874 -0.000345267
vn -0.01587105 0.01587105 0.9997481
vn -0.01587105 0.01587105 0.9997481
vn -0.01587105 0.01587105 0.9997481
vn -0.01587105 0.01587105 0.9997481
vn -0.01587105 0.01587105 0.9997481
vn -0.01587105 0.01587105 0.9997481
vn 0.01587099 0.01587105 0.9997481
vn 0.01587099 0.01587105 0.9997481
vn -0.01587105 0.01587105 0.9997481
vn -0.01587105 0.01587105 0.9997481
vn -0.01587105 0.01587105 0.9997481
vn -0.01587105 0.01587105 0.9997481
vn -0.7071068 -0.7071068 0
vn -0.6824538 -0.7141957 0.1555036
vn -0.6824538 -0.7141957 0.1555036
vn -0.7071068 -0.7071068 0
vn 0.6824536 0.7141957 0.1555042
vn 0.6824536 0.7141957 -0.1555042
vn 0.6824536 0.7141957 0.1555042
vn 0.6824536 0.7141957 0.1555042
vn -0.01587105 0.01587105 0.9997481
vn -0.01587105 0.01587105 0.9997481
vn -0.01587105 0.01587105 0.9997481
vn -0.01587105 0.01587105 0.9997481
vn -0.999874 0.01587105 -0.0003439156
vn -0.999874 0.01587105 -0.0003439156
vn -0.999874 0.01587105 -0.0003439156
vn -0.999874 0.01587105 -0.0003439156
vn 0.999874 0.01587105 -0.0003439156
vn 0.999874 0.01587105 -0.0003439156
vn 0.999874 0.01587105 -0.0003439156
vn 0.999874 0.01587105 -0.0003439156
vn -0.01587105 -0.999874 -0.000345267
vn -0.01587105 -0.999874 -0.000345267
vn -0.01587105 -0.999874 -0.000345267
vn -0.01587105 -0.999874 -0.000345267
vn -0.01587105 0.999874 -0.000345267
vn -0.01587105 0.999874 -0.000345267
vn -0.01587105 0.999874 -0.000345267
vn -0.01587105 0.999874 -0.000345267
vn -0.01587105 0.01587105 -0.9997481
vn -0.01587105 -0.01587099 -0.9997481
vn -0.01587105 -0.01587099 -0.9997481
vn -0.01587105 0.01587105 -0.9997481
vn -0.01587105 0.01587105 -0.9997481
vn -0.01587105 0.01587105 -0.9997481
vn 0.01587099 -0.01587099 -0.9997481
vn 0.01587099 -0.01587099 -0.9997481
vn -0.01587105 0.01587105 -0.9997481
vn -0.01587105 0.01587105 -0.9997481
vn -0.01587105 0.01587105 -0.9997481
vn -0.01587105 0.01587105 -0.9997481
vn 0.7071068 -0.7071068 0
vn 0.6824536 -0.7141957 -0.1555042
vn 0.6824536 -0.7141957 -0.1555042
vn 0.7071068 -0.7071068 0
vn -0.6824538 0.7141957 -0.1555036
vn -0.6824538 0.7141957 -0.1555036
vn -0.6824538 0.7141957 -0.1555036
vn -0.6824538 0.7141957 -0.1555036
vn -0.01587105 0.01587105 -0.9997481
vn -0.01587105 0.01587105 -0.9997481
vn -0.01587105 0.01587105 -0.9997481
vn -0.01587105 0.01587105 -0.9997481
vn 0.999874 0.01587105 -0.0003439156
vn 0.999874 0.01587105 -0.0003439156
vn 0.999874 0.01587105 -0.0003439156
vn 0.999874 0.01587105 -0.0003439156
vn -0.999874 0.01587105 -0.0003439156
vn -0.999874 0.01587105 -0.0003439156
vn -0.999874 0.01587105 -0.0003439156
vn -0.999874 0.01587105 -0.0003439156
vn -0.01587105 -0.999874 -0.000345267
vn -0.01587105 -0.999874 -0.000345267
vn -0.01587105 -0.999874 -0.000345267
vn -0.01587105 -0.999874 -0.000345267
vn -0.01587105 0.999874 -0.000345267
vn -0.01587105 0.999874 -0.000345267
vn -0.01587105 0.999874 -0.000345267
vn -0.01587105 0.999874 -0.000345267
g Wooden_box_v1_LD2square_0
f 3/3/3 2/2/2 1/1/1
f 4/4/4 3/3/3 1/1/1
f 7/7/7 6/6/6 5/5/5
f 8/8/8 7/7/7 5/5/5
f 8/8/8 5/5/5 9/9/9
f 10/10/10 8/8/8 9/9/9
f 10/10/10 9/9/9 11/11/11
f 11/11/11 6/6/6 7/7/7
f 12/12/12 10/10/10 11/11/11
f 12/12/12 11/11/11 7/7/7
f 15/15/15 14/14/14 13/13/13
f 16/16/16 15/15/15 13/13/13
f 19/19/19 18/18/18 17/17/17
f 20/20/20 19/19/19 17/17/17
f 23/23/23 22/22/22 21/21/21
f 24/24/24 23/23/23 21/21/21
f 27/27/27 26/26/26 25/25/25
f 28/28/28 27/27/27 25/25/25
f 31/31/31 30/30/30 29/29/29
f 32/32/32 31/31/31 29/29/29
f 35/35/35 34/34/34 33/33/33
f 36/36/36 35/35/35 33/33/33
f 39/39/39 38/38/38 37/37/37
f 40/40/40 39/39/39 37/37/37
f 43/43/43 42/42/42 41/41/41
f 44/44/44 43/43/43 41/41/41
f 47/47/47 46/46/46 45/45/45
f 48/48/48 47/47/47 45/45/45
f 48/48/48 45/45/45 49/49/49
f 50/50/50 48/48/48 49/49/49
f 50/50/50 49/49/49 51/51/51
f 51/51/51 46/46/46 47/47/47
f 52/52/52 50/50/50 51/51/51
f 52/52/52 51/51/51 47/47/47
f 55/55/55 54/54/54 53/53/53
f 56/56/56 55/55/55 53/53/53
f 59/59/59 58/58/58 57/57/57
f 60/60/60 59/59/59 57/57/57
f 63/63/63 62/62/62 61/61/61
f 64/64/64 63/63/63 61/61/61
f 67/67/67 66/66/66 65/65/65
f 68/68/68 67/67/67 65/65/65
f 71/71/71 70/70/70 69/69/69
f 72/72/72 71/71/71 69/69/69
f 75/75/75 74/74/74 73/73/73
f 76/76/76 75/75/75 73/73/73
f 79/79/79 78/78/78 77/77/77
f 80/80/80 79/79/79 77/77/77
f 83/83/83 82/82/82 81/81/81
f 84/84/84 83/83/83 81/81/81
f 87/87/87 86/86/86 85/85/85
f 88/88/88 87/87/87 85/85/85
f 91/91/91 90/90/90 89/89/89
f 92/92/92 91/91/91 89/89/89
f 95/95/95 94/94/94 93/93/93
f 96/96/96 95/95/95 93/93/93
f 99/99/99 98/98/98 97/97/97
f 97/97/97 100/100/100 99/99/99
f 97/97/97 101/101/101 100/100/100
f 101/101/101 102/102/102 100/100/100
f 105/105/105 104/104/104 103/103/103
f 106/106/106 105/105/105 103/103/103
f 109/109/109 108/108/108 107/107/107
f 110/110/110 109/109/109 107/107/107
f 113/113/113 112/112/112 111/111/111
f 114/114/114 113/113/113 111/111/111
f 117/117/117 116/116/116 115/115/115
f 118/118/118 117/117/117 115/115/115
f 121/121/121 120/120/120 119/119/119
f 122/122/122 121/121/121 119/119/119
f 122/122/122 119/119/119 123/123/123
f 119/119/119 124/124/124 123/123/123
f 124/124/124 125/125/125 123/123/123
f 125/125/125 126/126/126 123/123/123
f 126/126/126 125/125/125 120/120/120
f 121/121/121 126/126/126 120/120/120
f 129/129/129 128/128/128 127/127/127
f 130/130/130 129/129/129 127/127/127
f 130/130/130 127/127/127 131/131/131
f 132/132/132 130/130/130 131/131/131
f 132/132/132 131/131/131 133/133/133
f 134/134/134 132/132/132 133/133/133
f 134/134/134 133/133/133 128/128/128
f 129/129/129 134/134/134 128/128/128
f 137/137/137 136/136/136 135/135/135
f 138/138/138 137/137/137 135/135/135
f 141/141/141 140/140/140 139/139/139
f 142/142/142 141/141/141 139/139/139
f 145/145/145 144/144/144 143/143/143
f 146/146/146 145/145/145 143/143/143
f 149/149/149 148/148/148 147/147/147
f 150/150/150 149/149/149 147/147/147
f 153/153/153 152/152/152 151/151/151
f 154/154/154 153/153/153 151/151/151
f 157/157/157 156/156/156 155/155/155
f 158/158/158 157/157/157 155/155/155
f 161/161/161 160/160/160 159/159/159
f 162/162/162 161/161/161 159/159/159
f 165/165/165 164/164/164 163/163/163
f 166/166/166 165/165/165 163/163/163
f 169/169/169 168/168/168 167/167/167
f 170/170/170 169/169/169 167/167/167
f 170/170/170 167/167/167 171/171/171
f 172/172/172 170/170/170 171/171/171
f 172/172/172 171/171/171 173/173/173
f 174/174/174 172/172/172 173/173/173
f 174/174/174 173/173/173 168/168/168
f 169/169/169 174/174/174 168/168/168
f 177/177/177 176/176/176 175/175/175
f 178/178/178 177/177/177 175/175/175
f 181/181/181 180/180/180 179/179/179
f 182/182/182 181/181/181 179/179/179
f 185/185/185 184/184/184 183/183/183
f 186/186/186 185/185/185 183/183/183
f 189/189/189 188/188/188 187/187/187
f 190/190/190 189/189/189 187/187/187
f 193/193/193 192/192/192 191/191/191
f 194/194/194 193/193/193 191/191/191
f 197/197/197 196/196/196 195/195/195
f 198/198/198 197/197/197 195/195/195
f 201/201/201 200/200/200 199/199/199
f 202/202/202 201/201/201 199/199/199
f 205/205/205 204/204/204 203/203/203
f 206/206/206 205/205/205 203/203/203
